<svg xmlns="http://www.w3.org/2000/svg" viewBox="0 0 24 24"><style>.bg{fill:#fff}.fg{fill:#000}@media (prefers-color-scheme:light){.bg{fill:#000}.fg{fill:#fff}}</style><path class="bg" d="M0 0h24v24H0z"/><path class="fg" fill-rule="evenodd" d="M11.94 19.44a7.5 7.5 0 1 0 0-15 7.5 7.5 0 0 0 0 15Zm0-1.2a6.35 6.35 0 0 0 1.02-.082V5.722a6.344 6.344 0 0 0-2.16.02v12.395c.37.068.75.103 1.14.103Zm4.38-1.772a6.301 6.301 0 0 1-2.16 1.37V6.042a6.303 6.303 0 0 1 2.16 1.37v9.056ZM6.24 9.253a6.276 6.276 0 0 0-.6 2.687c0 .961.215 1.872.6 2.687V9.253Zm1.2-1.722v8.818a6.31 6.31 0 0 0 2.16 1.442V6.09a6.309 6.309 0 0 0-2.16 1.44Zm10.8 4.409c0 1.057-.26 2.053-.72 2.927V9.013c.46.874.72 1.87.72 2.927Z" clip-rule="evenodd"/></svg>
